<svg version="1.1" id="레이어_1" xmlns="http://www.w3.org/2000/svg" x="0" y="0" viewBox="0 0 673.67 675" style="enable-background:new 0 0 673.67 675" xml:space="preserve"><style>.st0,.st1{stroke:#fff;stroke-miterlimit:10}.st0{fill:none;stroke-width:2}.st1{stroke-width:.5}.st1,.st2{fill:none}.st3{fill:#fff}</style><path d="M1011-255.77h1200v1200H1011zM668.46 342.67c-.75-2.91-.43-6.26.07-9.3 4.1-24.79.1-48.98-7.2-72.39-6.79-21.81-16.21-42.78-23.87-64.34-5.61-15.79-13.99-29.57-25.24-41.89-4.57-5.01-7.83-11.22-11.9-16.72-7.74-10.48-14.61-21.9-23.77-30.97-8.66-8.58-17.43-16.78-24.96-26.52-7.47-9.67-16.76-18-29.26-20.71-18.13-3.93-33.05-13.09-46.25-25.94-3.56-3.47-8.76-5.86-13.63-7.24-17.64-5.01-35.44-9.45-53.22-13.95-4.26-1.08-8.63-1.87-12.99-2.32-9.45-.97-18.94-1.69-28.42-2.39-14.45-1.07-28.59-5.68-43.47-2.1-6.85 1.65-14.49 1.31-21.57.36-8.37-1.12-16.01-1.28-23.6 3.28-4.28 2.58-9.29 4.74-14.18 5.34-12.9 1.58-25.06 5.2-36.84 10.56-2.76 1.26-5.96 1.76-9.01 2.08-10.71 1.12-20.78 3.94-29.92 9.9-18.19 11.86-36.63 23.34-54.67 35.43-6.55 4.38-12.83 9.48-18.24 15.2-15.24 16.14-29.7 33.03-44.99 49.13-11.5 12.11-20.89 25.22-25.58 41.51-1.2 4.17-3.06 8.55-5.84 11.79-7.82 9.12-13.2 19.31-16.59 30.81-1.69 5.73-4.23 11.23-6.71 16.69-9.38 20.67-13.34 42.23-11.75 64.95.71 10.17.41 20.43.37 30.65-.05 11.3-.96 22.63-.32 33.88.55 9.71 2.4 19.4 4.32 28.96 1.73 8.62 4.36 17.06 6.57 25.58 1.16 4.49 2.82 8.94 3.32 13.5 2.01 18.25 7.11 35.18 18.72 49.82 3.42 4.31 5.87 9.39 8.74 14.14 7.8 12.91 15.38 25.95 23.45 38.69 5.45 8.6 11.42 16.87 17.45 25.08 2.57 3.51 5.58 6.82 8.9 9.62 13.03 10.98 27.63 20.43 39.12 32.81 21.5 23.18 48.14 35.41 77.75 43.36 16.6 4.46 32.82 10.33 49.24 15.5 3.98 1.25 8 2.54 12.1 3.26 10.24 1.8 20.53 3.36 30.82 4.86 3.69.54 7.48 1.1 11.17.85 12.94-.9 25.86-2.14 38.79-3.26.06.6.11 1.2.17 1.8 3.52-.34 7.05-.58 10.56-1.03 17.12-2.22 34.25-4.35 51.33-6.83 6.28-.91 12.68-2.01 18.59-4.21 17.22-6.4 34.26-13.3 51.28-20.24 3.64-1.49 7.14-3.62 10.27-6.03 21.45-16.48 42.8-33.09 64.13-49.73 1.73-1.35 3.12-3.14 4.62-4.77 9.58-10.48 18.51-21.68 28.89-31.28 12.85-11.88 21.81-26.09 29.58-41.46 4.3-8.5 8.98-16.87 14.23-24.8 3.95-5.97 5.66-12.2 6.77-19.16 1.13-7.07 3.23-14.26 6.38-20.67 3.87-7.86 7.19-15.33 7.36-24.46.14-7.65 2.19-15.36 4.13-22.86 4.4-17.03 9.39-33.91 4.8-51.82zM522.74 463.79c.16.15.31.3.47.46.46.48.91 1 1.37 1.47-.46-.47-.91-.99-1.37-1.47-.15-.16-.31-.31-.47-.46zm12.97 6.73c-.16-.14-.32-.29-.48-.45.16.16.32.31.48.45zm-1.88-1.87c.31.31.62.63.93.95-.3-.32-.61-.65-.93-.95z"/><g id="Body_1_"><circle class="st0" cx="337.4" cy="337.58" r="305.41"/><circle transform="rotate(-1.914 337.19336 337.37545)" class="st1" cx="337.4" cy="337.58" r="263.92"/><circle class="st0" cx="337.4" cy="337.58" r="247.51"/><path class="st2" d="M554.14 247.8v179.55"/><path class="st1" d="M554.14 427.35v126.96H427.18M120.67 247.8V120.84h126.96"/><path class="st2" d="M120.67 247.8v179.55"/><path class="st1" d="M554.14 247.8V120.84H427.18M247.63 120.84h179.55M120.67 427.35v126.96h126.96M427.18 554.31H247.63M120.67 427.35l126.96 126.96M554.14 427.35l89.77-89.77-89.77-89.78M554.14 427.35 427.18 554.31M120.67 247.8l-89.78 89.78 89.78 89.77M427.18 554.31l-89.78 89.78-89.77-89.78M427.18 120.84 554.14 247.8M120.67 247.8l126.96-126.96M247.63 120.84l89.77-89.78 89.78 89.78M290.59 140.27h93.63v93.63h-93.63z"/><path class="st1" d="m273.17 187.09 64.23-64.25 64.24 64.25-64.24 64.22z"/><path class="st3" d="m337.4 132.17 54.9 54.92-54.9 54.9-54.9-54.9zM342.05 617.42c0 3.2-2.59 5.8-5.79 5.8s-5.79-2.6-5.79-5.8c0-3.19 2.59-5.79 5.79-5.79s5.79 2.6 5.79 5.79zM55.73 342.71c-3.2 0-5.8-2.59-5.8-5.79s2.6-5.79 5.8-5.79c3.19 0 5.79 2.59 5.79 5.79s-2.59 5.79-5.79 5.79zM330.45 56.4c0-3.2 2.59-5.8 5.79-5.8s5.79 2.6 5.79 5.8c0 3.19-2.59 5.79-5.79 5.79-3.2-.01-5.79-2.6-5.79-5.79zM616.76 331.11c3.2 0 5.8 2.59 5.8 5.79s-2.6 5.79-5.8 5.79c-3.19 0-5.79-2.59-5.79-5.79s2.6-5.79 5.79-5.79z"/></g><path class="st3" d="m276.99 262.25 8.17-4.93h29.94l-2.4 3.01v89.09l.84 3.61-3.25-2.52-12.38-9.74.72-2.16v-33.42h-8.42v29.58l-14.07-11.06.84-.72v-60.74zm13.22 9.26v19.48h8.42v-19.48h-8.42zM332.17 335.71l-14.31-10.22.84-.72v-64.44l-2.4-3.01h29.94l8.17 4.93v25.37l-12.62 7.21 12.62 6.73v47.13l1.32 4.81-16.23-12.26 1.8-2.65v-31.38l-9.14-4.81v33.31zm-.24-48.33 9.62-5.77v-10.1h-9.62v15.87zM383.39 348.57l1.44 6.49-16.71-12.02 1.92-2.88v-68.65h-10.7v-11.18l-2.4-3.01h40.52l-2.4 3.01v11.18H383.4v77.06zM181.96 362.24v-10.82l-2.28-3.01h18.03l-2.41 3.01v10.82h-13.34zm0 3.01h13.34v93.17l.84 3.85-15.99-11.78 1.8-2.89v-82.35zM237.02 368.26v85.36l1.08 4.81-16.23-12.74.72-1.2v-6.13l-8.06-26.21v26.21l-.36 1.2v.12l-13.58-10.58.72-.6v-60.23l-2.4-3.01h15.63v1.44l8.06 24.65v-26.09h16.83l-2.41 3zM272.72 368.74l-2.28-3.49h15.87l7.45 19 6.97-19h15.39l-.96 2.89v87.4l1.56 7.21-7.82-5.77-8.17-6.13 1.92-2.76V416.1l-8.78 23.92-9.02-32.1v31.02l-12.98-9.74.84-.72v-59.74zM353.99 442.68l-16.47 15.27-19.6-16.59v-69.49l5.05-6.61h25.73l5.29 6.13v71.29zm-14.42-64.45h-8.06v54.1l8.06 7.09v-61.19zM381.64 456.5l1.44 6.49-16.71-12.02 1.92-2.88v-68.65h-10.7v-11.18l-2.4-3.01h40.52l-2.4 3.01v11.18h-11.66v77.06zM399.19 362.24v-10.82l-2.28-3.01h18.03l-2.41 3.01v10.82h-13.34zm0 3.01h13.34v93.17l.84 3.85-15.99-11.78 1.8-2.89v-82.35zM452.21 442.68l-16.47 15.27-19.6-16.59v-69.49l5.05-6.61h25.73l5.29 6.13v71.29zm-14.42-64.45h-8.06v54.1l8.06 7.09v-61.19zM491.53 368.26v85.36l1.08 4.81-16.23-12.74.72-1.2v-6.13l-8.06-26.21v26.21l-.36 1.2v.12L455.1 429.1l.72-.6v-60.23l-2.4-3.01h15.63v1.44l8.06 24.65v-26.09h16.83l-2.41 3z"/><g><path class="st3" d="m366.11-224.75 8.17-4.93h29.94l-2.4 3.01v89.09l.84 3.61-3.25-2.52-12.38-9.74.72-2.16v-33.42h-8.42v29.58l-14.07-11.06.84-.72v-60.74zm13.23 9.26v19.48h8.42v-19.48h-8.42zM421.3-151.29l-14.31-10.22.84-.72v-64.44l-2.4-3.01h29.94l8.17 4.93v25.37l-12.62 7.21 12.62 6.73v47.13l1.32 4.81-16.23-12.26 1.8-2.65v-31.38l-9.14-4.81v33.31zm-.24-48.33 9.62-5.77v-10.1h-9.62v15.87zM472.51-138.43l1.44 6.49-16.71-12.02 1.92-2.88v-68.65h-10.7v-11.18l-2.4-3.01h40.52l-2.4 3.01v11.18h-11.66v77.06zM525.08-227.76v-10.82l-2.28-3.01h18.03l-2.41 3.01v10.82h-13.34zm0 3.01h13.34v93.17l.84 3.85-15.99-11.78 1.8-2.89v-82.35zM580.14-221.74v85.36l1.08 4.81-16.23-12.74.72-1.2v-6.13l-8.06-26.21v26.21l-.36 1.2v.12l-13.58-10.58.72-.6v-60.23l-2.4-3.01h15.63v1.44l8.06 24.65v-26.09h16.83l-2.41 3zM615.85-221.26l-2.28-3.49h15.87l7.45 19 6.97-19h15.39l-.96 2.89v87.4l1.56 7.21-7.82-5.77-8.17-6.13 1.92-2.76v-31.98L637-149.97l-9.02-32.1v31.02L615-160.79l.84-.72v-59.75zM697.12-147.32l-16.47 15.27-19.6-16.59v-69.49l5.05-6.61h25.73l5.29 6.13v71.29zm-14.43-64.45h-8.06v54.1l8.06 7.09v-61.19zM724.77-133.5l1.44 6.49-16.71-12.02 1.92-2.88v-68.65h-10.7v-11.18l-2.4-3.01h40.52l-2.4 3.01v11.18h-11.66v77.06zM742.32-227.76v-10.82l-2.28-3.01h18.03l-2.41 3.01v10.82h-13.34zm0 3.01h13.34v93.17l.84 3.85-15.99-11.78 1.8-2.89v-82.35zM795.34-147.32l-16.47 15.27-19.6-16.59v-69.49l5.05-6.61h25.73l5.29 6.13v71.29zm-14.43-64.45h-8.06v54.1l8.06 7.09v-61.19zM834.65-221.74v85.36l1.08 4.81-16.23-12.74.72-1.2v-6.13l-8.06-26.21v26.21l-.36 1.2v.12l-13.58-10.58.72-.6v-60.23l-2.4-3.01h15.63v1.44l8.06 24.65v-26.09h16.83l-2.41 3z"/></g><g><path d="m320.39 153.92 6.71-4.04h24.56l-1.97 2.47v73.07l.69 2.96-2.66-2.07-10.16-7.99.59-1.77v-27.42h-6.9v24.26l-11.54-9.07.69-.59v-49.81zm10.85 7.59v15.98h6.9v-15.98h-6.9z"/></g><path class="st1" d="M348.59-539.73h93.63v93.63h-93.63z"/><path class="st1" d="m331.17-492.91 64.23-64.25 64.24 64.25-64.24 64.22z"/><path class="st3" d="m395.4-547.83 54.9 54.92-54.9 54.9-54.9-54.9z"/><g><path d="m378.39-526.08 6.71-4.04h24.56l-1.97 2.47v73.07l.69 2.96-2.66-2.07-10.16-7.99.59-1.77v-27.42h-6.9v24.26l-11.54-9.07.69-.59v-49.81zm10.85 7.59v15.98h6.9v-15.98h-6.9z"/></g><g><path class="st3" d="M239.57 490.17c-.15-2.72-.32-5.99-.29-8.42h-.09c-.67 2.29-1.48 4.72-2.46 7.41l-3.44 9.46h-1.91l-3.16-9.29c-.93-2.75-1.71-5.27-2.26-7.58h-.06c-.06 2.43-.2 5.7-.38 8.63l-.52 8.37h-2.4l1.36-19.51h3.21l3.33 9.44c.81 2.4 1.48 4.54 1.97 6.57h.09c.49-1.97 1.19-4.11 2.05-6.57l3.47-9.44h3.21l1.22 19.51h-2.46l-.48-8.58zM263.07 488.78c0 6.71-4.08 10.28-9.06 10.28-5.15 0-8.77-3.99-8.77-9.9 0-6.19 3.85-10.25 9.06-10.25 5.33 0 8.77 4.08 8.77 9.87zm-15.13.32c0 4.17 2.26 7.9 6.22 7.9 4 0 6.25-3.68 6.25-8.11 0-3.88-2.03-7.93-6.22-7.93-4.17.01-6.25 3.86-6.25 8.14zM270.63 498.74l-6.37-19.51h2.72l3.04 9.61c.84 2.63 1.56 5.01 2.08 7.29h.06c.55-2.26 1.36-4.72 2.23-7.26l3.3-9.64h2.69l-6.98 19.51h-2.77zM292.6 489.59h-7.58v7.03h8.45v2.11H282.5v-19.51h10.54v2.11h-8.02v6.17h7.58v2.09zM305.4 481.37h-5.93v-2.14h14.44v2.14h-5.96v17.37h-2.55v-17.37zM318.6 479.23v8.16h9.44v-8.16h2.55v19.51h-2.55v-9.15h-9.44v9.15h-2.52v-19.51h2.52zM345.06 489.59h-7.58v7.03h8.45v2.11h-10.97v-19.51h10.54v2.11h-8.02v6.17h7.58v2.09zM357.47 498.74l-4.95-19.51h2.66l2.31 9.87c.58 2.43 1.1 4.86 1.45 6.74h.06c.32-1.94.93-4.25 1.59-6.77l2.61-9.84h2.63l2.38 9.9c.55 2.32 1.07 4.63 1.36 6.69h.06c.4-2.14.96-4.31 1.56-6.74l2.58-9.84h2.58l-5.53 19.51h-2.63l-2.46-10.16c-.61-2.49-1.01-4.4-1.27-6.37h-.06c-.35 1.94-.78 3.85-1.5 6.37l-2.78 10.16h-2.65zM395.46 488.78c0 6.71-4.08 10.28-9.06 10.28-5.15 0-8.77-3.99-8.77-9.9 0-6.19 3.85-10.25 9.06-10.25 5.32 0 8.77 4.08 8.77 9.87zm-15.14.32c0 4.17 2.26 7.9 6.22 7.9 3.99 0 6.25-3.68 6.25-8.11 0-3.88-2.03-7.93-6.22-7.93-4.17.01-6.25 3.86-6.25 8.14zM398.73 479.49c1.27-.26 3.1-.41 4.83-.41 2.69 0 4.43.49 5.64 1.59.98.87 1.54 2.2 1.54 3.71 0 2.58-1.62 4.28-3.68 4.98v.09c1.51.52 2.4 1.91 2.87 3.94.64 2.72 1.1 4.6 1.5 5.36h-2.61c-.32-.55-.75-2.23-1.3-4.66-.58-2.69-1.62-3.71-3.91-3.79h-2.38v8.45h-2.52v-19.26zm2.51 8.89h2.58c2.69 0 4.4-1.48 4.4-3.71 0-2.52-1.82-3.62-4.49-3.65-1.21 0-2.08.12-2.49.23v7.13zM414.3 479.23h2.52v17.4h8.34v2.11H414.3v-19.51zM427.96 479.49c1.54-.23 3.36-.41 5.36-.41 3.62 0 6.19.84 7.9 2.43 1.74 1.59 2.75 3.85 2.75 7 0 3.18-.98 5.79-2.81 7.58-1.82 1.82-4.83 2.81-8.62 2.81-1.79 0-3.3-.09-4.57-.23v-19.18zm2.52 17.25c.64.12 1.56.14 2.55.14 5.38 0 8.31-3.01 8.31-8.28.03-4.6-2.58-7.53-7.9-7.53-1.3 0-2.29.12-2.95.26v15.41z"/></g><g><path class="st3" d="M507.44-101.83c-.15-2.72-.32-5.99-.29-8.42h-.09c-.67 2.29-1.48 4.72-2.46 7.41l-3.44 9.46h-1.91l-3.16-9.29c-.93-2.75-1.71-5.27-2.26-7.58h-.06c-.06 2.43-.2 5.7-.38 8.63l-.52 8.37h-2.4l1.36-19.51h3.21l3.33 9.44c.81 2.4 1.48 4.54 1.97 6.57h.09c.49-1.97 1.19-4.11 2.05-6.57l3.47-9.44h3.21l1.22 19.51h-2.46l-.48-8.58zM530.95-103.22c0 6.71-4.08 10.28-9.06 10.28-5.15 0-8.77-3.99-8.77-9.9 0-6.19 3.85-10.25 9.06-10.25 5.32 0 8.77 4.08 8.77 9.87zm-15.14.32c0 4.17 2.26 7.9 6.22 7.9 4 0 6.25-3.68 6.25-8.11 0-3.88-2.03-7.93-6.22-7.93-4.17.01-6.25 3.86-6.25 8.14zM538.5-93.26l-6.37-19.51h2.72l3.04 9.61c.84 2.63 1.56 5.01 2.08 7.29h.06c.55-2.26 1.36-4.72 2.23-7.26l3.3-9.64h2.69l-6.98 19.51h-2.77zM560.48-102.41h-7.58v7.03h8.45v2.11h-10.97v-19.51h10.54v2.11h-8.02v6.17h7.58v2.09zM573.27-110.63h-5.93v-2.14h14.44v2.14h-5.96v17.37h-2.55v-17.37zM586.47-112.77v8.16h9.44v-8.16h2.55v19.51h-2.55v-9.15h-9.44v9.15h-2.52v-19.51h2.52zM612.93-102.41h-7.58v7.03h8.45v2.11h-10.97v-19.51h10.54v2.11h-8.02v6.17h7.58v2.09zM625.35-93.26l-4.95-19.51h2.66l2.31 9.87c.58 2.43 1.1 4.86 1.45 6.74h.06c.32-1.94.93-4.25 1.59-6.77l2.61-9.84h2.63l2.38 9.9c.55 2.32 1.07 4.63 1.36 6.69h.06c.4-2.14.96-4.31 1.56-6.74l2.58-9.84h2.58l-5.53 19.51h-2.63l-2.46-10.16c-.61-2.49-1.01-4.4-1.27-6.37h-.06c-.35 1.94-.78 3.85-1.5 6.37L628-93.25h-2.65zM663.33-103.22c0 6.71-4.08 10.28-9.06 10.28-5.15 0-8.77-3.99-8.77-9.9 0-6.19 3.85-10.25 9.06-10.25 5.32 0 8.77 4.08 8.77 9.87zm-15.14.32c0 4.17 2.26 7.9 6.22 7.9 3.99 0 6.25-3.68 6.25-8.11 0-3.88-2.03-7.93-6.22-7.93-4.16.01-6.25 3.86-6.25 8.14zM666.6-112.51c1.27-.26 3.1-.41 4.83-.41 2.69 0 4.43.49 5.64 1.59.98.87 1.54 2.2 1.54 3.71 0 2.58-1.62 4.28-3.68 4.98v.09c1.51.52 2.4 1.91 2.87 3.94.64 2.72 1.1 4.6 1.5 5.36h-2.61c-.32-.55-.75-2.23-1.3-4.66-.58-2.69-1.62-3.71-3.91-3.79h-2.38v8.45h-2.52v-19.26zm2.52 8.89h2.58c2.69 0 4.4-1.48 4.4-3.71 0-2.52-1.82-3.62-4.49-3.65-1.21 0-2.08.12-2.49.23v7.13zM682.18-112.77h2.52v17.4h8.34v2.11h-10.86v-19.51zM695.84-112.51c1.54-.23 3.36-.41 5.36-.41 3.62 0 6.19.84 7.9 2.43 1.74 1.59 2.75 3.85 2.75 7 0 3.18-.98 5.79-2.81 7.58-1.82 1.82-4.83 2.81-8.62 2.81-1.79 0-3.3-.09-4.57-.23v-19.18zm2.52 17.25c.64.12 1.56.14 2.55.14 5.38 0 8.31-3.01 8.31-8.28.03-4.6-2.58-7.53-7.9-7.53-1.3 0-2.29.12-2.95.26v15.41z"/></g></svg>