<?xml version="1.0" encoding="utf-8"?>
<!-- Generator: Adobe Illustrator 26.3.1, SVG Export Plug-In . SVG Version: 6.00 Build 0)  -->
<svg version="1.1" id="레이어_1" xmlns="http://www.w3.org/2000/svg" xmlns:xlink="http://www.w3.org/1999/xlink" x="0px"
	 y="0px" viewBox="0 0 472 114" style="enable-background:new 0 0 472 114;" xml:space="preserve">
<style type="text/css">
	.st0{fill:none;stroke:#FFFFFF;stroke-width:2;stroke-miterlimit:10;}
	.st1{fill:none;stroke:#FFFFFF;stroke-width:0.5;stroke-miterlimit:10;}
	.st2{fill:none;}
	.st3{fill:#FFFFFF;}
</style>
<rect x="262" y="284" width="1200" height="1200"/>
<path d="M-80.54,882.44c-0.75-2.91-0.43-6.26,0.07-9.3c4.1-24.79,0.1-48.98-7.2-72.39c-6.79-21.81-16.21-42.78-23.87-64.34
	c-5.61-15.79-13.99-29.57-25.24-41.89c-4.57-5.01-7.83-11.22-11.9-16.72c-7.74-10.48-14.61-21.9-23.77-30.97
	c-8.66-8.58-17.43-16.78-24.96-26.52c-7.47-9.67-16.76-18-29.26-20.71c-18.13-3.93-33.05-13.09-46.25-25.94
	c-3.56-3.47-8.76-5.86-13.63-7.24c-17.64-5.01-35.44-9.45-53.22-13.95c-4.26-1.08-8.63-1.87-12.99-2.32
	c-9.45-0.97-18.94-1.69-28.42-2.39c-14.45-1.07-28.59-5.68-43.47-2.1c-6.85,1.65-14.49,1.31-21.57,0.36
	c-8.37-1.12-16.01-1.28-23.6,3.28c-4.28,2.58-9.29,4.74-14.18,5.34c-12.9,1.58-25.06,5.2-36.84,10.56
	c-2.76,1.26-5.96,1.76-9.01,2.08c-10.71,1.12-20.78,3.94-29.92,9.9c-18.19,11.86-36.63,23.34-54.67,35.43
	c-6.55,4.38-12.83,9.48-18.24,15.2c-15.24,16.14-29.7,33.03-44.99,49.13c-11.5,12.11-20.89,25.22-25.58,41.51
	c-1.2,4.17-3.06,8.55-5.84,11.79c-7.82,9.12-13.2,19.31-16.59,30.81c-1.69,5.73-4.23,11.23-6.71,16.69
	c-9.38,20.67-13.34,42.23-11.75,64.95c0.71,10.17,0.41,20.43,0.37,30.65c-0.05,11.3-0.96,22.63-0.32,33.88
	c0.55,9.71,2.4,19.4,4.32,28.96c1.73,8.62,4.36,17.06,6.57,25.58c1.16,4.49,2.82,8.94,3.32,13.5c2.01,18.25,7.11,35.18,18.72,49.82
	c3.42,4.31,5.87,9.39,8.74,14.14c7.8,12.91,15.38,25.95,23.45,38.69c5.45,8.6,11.42,16.87,17.45,25.08c2.57,3.51,5.58,6.82,8.9,9.62
	c13.03,10.98,27.63,20.43,39.12,32.81c21.5,23.18,48.14,35.41,77.75,43.36c16.6,4.46,32.82,10.33,49.24,15.5
	c3.98,1.25,8,2.54,12.1,3.26c10.24,1.8,20.53,3.36,30.82,4.86c3.69,0.54,7.48,1.1,11.17,0.85c12.94-0.9,25.86-2.14,38.79-3.26
	c0.06,0.6,0.11,1.2,0.17,1.8c3.52-0.34,7.05-0.58,10.56-1.03c17.12-2.22,34.25-4.35,51.33-6.83c6.28-0.91,12.68-2.01,18.59-4.21
	c17.22-6.4,34.26-13.3,51.28-20.24c3.64-1.49,7.14-3.62,10.27-6.03c21.45-16.48,42.8-33.09,64.13-49.73
	c1.73-1.35,3.12-3.14,4.62-4.77c9.58-10.48,18.51-21.68,28.89-31.28c12.85-11.88,21.81-26.09,29.58-41.46
	c4.3-8.5,8.98-16.87,14.23-24.8c3.95-5.97,5.66-12.2,6.77-19.16c1.13-7.07,3.23-14.26,6.38-20.67c3.87-7.86,7.19-15.33,7.36-24.46
	c0.14-7.65,2.19-15.36,4.13-22.86C-80.94,917.23-75.95,900.36-80.54,882.44z M-226.26,1003.56c0.16,0.15,0.31,0.3,0.47,0.46
	c0.46,0.48,0.91,1,1.37,1.47c-0.46-0.47-0.91-0.99-1.37-1.47C-225.94,1003.86-226.1,1003.71-226.26,1003.56L-226.26,1003.56z
	 M-213.29,1010.29c-0.16-0.14-0.32-0.29-0.48-0.45C-213.61,1010-213.45,1010.15-213.29,1010.29L-213.29,1010.29z M-215.17,1008.42
	c0.31,0.31,0.62,0.63,0.93,0.95C-214.54,1009.05-214.85,1008.72-215.17,1008.42z"/>
<g id="Body_1_">
	<circle class="st0" cx="-411.6" cy="877.35" r="305.41"/>
	
		<ellipse transform="matrix(0.9994 -0.0334 0.0334 0.9994 -29.515 -13.2501)" class="st1" cx="-411.6" cy="877.35" rx="263.92" ry="263.92"/>
	<circle class="st0" cx="-411.6" cy="877.35" r="247.51"/>
	<line class="st2" x1="-194.86" y1="787.57" x2="-194.86" y2="967.12"/>
	<polyline class="st1" points="-194.86,967.12 -194.86,1094.08 -321.82,1094.08 	"/>
	<polyline class="st1" points="-628.33,787.57 -628.33,660.61 -501.37,660.61 	"/>
	<line class="st2" x1="-628.33" y1="787.57" x2="-628.33" y2="967.12"/>
	<polyline class="st1" points="-194.86,787.57 -194.86,660.61 -321.82,660.61 	"/>
	<line class="st1" x1="-501.37" y1="660.61" x2="-321.82" y2="660.61"/>
	<polyline class="st1" points="-628.33,967.12 -628.33,1094.08 -501.37,1094.08 	"/>
	<line class="st1" x1="-321.82" y1="1094.08" x2="-501.37" y2="1094.08"/>
	<line class="st1" x1="-628.33" y1="967.12" x2="-501.37" y2="1094.08"/>
	<polyline class="st1" points="-194.86,967.12 -105.09,877.35 -194.86,787.57 	"/>
	<line class="st1" x1="-194.86" y1="967.12" x2="-321.82" y2="1094.08"/>
	<polyline class="st1" points="-628.33,787.57 -718.11,877.35 -628.33,967.12 	"/>
	<polyline class="st1" points="-321.82,1094.08 -411.6,1183.86 -501.37,1094.08 	"/>
	<line class="st1" x1="-321.82" y1="660.61" x2="-194.86" y2="787.57"/>
	<line class="st1" x1="-628.33" y1="787.57" x2="-501.37" y2="660.61"/>
	<polyline class="st1" points="-501.37,660.61 -411.6,570.84 -321.82,660.61 	"/>
	<rect x="-458.41" y="680.04" class="st1" width="93.63" height="93.63"/>
	<polygon class="st1" points="-475.83,726.86 -411.6,662.61 -347.36,726.86 -411.6,791.08 	"/>
	<polygon class="st3" points="-411.6,671.95 -356.7,726.86 -411.6,781.76 -466.5,726.86 	"/>
	<path class="st3" d="M-406.95,1157.19c0,3.2-2.59,5.8-5.79,5.8c-3.2,0-5.79-2.6-5.79-5.8c0-3.19,2.59-5.79,5.79-5.79
		C-409.54,1151.41-406.95,1154-406.95,1157.19z"/>
	<path class="st3" d="M-693.27,882.48c-3.2,0-5.8-2.59-5.8-5.79c0-3.2,2.6-5.79,5.8-5.79c3.19,0,5.79,2.59,5.79,5.79
		C-687.48,879.89-690.07,882.48-693.27,882.48z"/>
	<path class="st3" d="M-418.55,596.17c0-3.2,2.59-5.8,5.79-5.8c3.2,0,5.79,2.6,5.79,5.8c0,3.19-2.59,5.79-5.79,5.79
		C-415.96,601.96-418.55,599.36-418.55,596.17z"/>
	<path class="st3" d="M-132.24,870.88c3.2,0,5.8,2.59,5.8,5.79c0,3.2-2.6,5.79-5.8,5.79c-3.19,0-5.79-2.59-5.79-5.79
		C-138.03,873.47-135.43,870.88-132.24,870.88z"/>
</g>
<g>
	<g>
		<path class="st3" d="M-472.01,802.02l8.17-4.93h29.94l-2.4,3.01v89.09l0.84,3.61l-3.25-2.52l-12.38-9.74l0.72-2.16v-33.42h-8.42
			v29.58l-14.07-11.06l0.84-0.72V802.02z M-458.79,811.28v19.48h8.42v-19.48H-458.79z"/>
		<path class="st3" d="M-416.83,875.48l-14.31-10.22l0.84-0.72V800.1l-2.4-3.01h29.94l8.17,4.93v25.37l-12.62,7.21l12.62,6.73v47.13
			l1.32,4.81l-16.23-12.26l1.8-2.65v-31.38l-9.14-4.81V875.48z M-417.07,827.15l9.62-5.77v-10.1h-9.62V827.15z"/>
		<path class="st3" d="M-365.61,888.34l1.44,6.49l-16.71-12.02l1.92-2.88v-68.65h-10.7V800.1l-2.4-3.01h40.52l-2.4,3.01v11.18
			h-11.66V888.34z"/>
		<path class="st3" d="M-567.04,902.02V891.2l-2.28-3.01h18.03l-2.41,3.01v10.82H-567.04z M-567.04,905.02h13.34v93.17l0.84,3.85
			l-15.99-11.78l1.8-2.89V905.02z"/>
		<path class="st3" d="M-511.98,908.03v85.36l1.08,4.81l-16.23-12.74l0.72-1.2v-6.13l-8.06-26.21v26.21l-0.36,1.2v0.12l-13.58-10.58
			l0.72-0.6v-60.23l-2.4-3.01h15.63v1.44l8.06,24.65v-26.09h16.83L-511.98,908.03z"/>
		<path class="st3" d="M-476.28,908.51l-2.28-3.49h15.87l7.45,19l6.97-19h15.39l-0.96,2.89v87.4l1.56,7.21l-7.82-5.77l-8.17-6.13
			l1.92-2.76v-31.98l-8.78,23.92l-9.02-32.1v31.02l-12.98-9.74l0.84-0.72V908.51z"/>
		<path class="st3" d="M-395.01,982.45l-16.47,15.27l-19.6-16.59v-69.49l5.05-6.61h25.73l5.29,6.13V982.45z M-409.43,918.01h-8.06
			v54.1l8.06,7.09V918.01z"/>
		<path class="st3" d="M-367.36,996.27l1.44,6.49l-16.71-12.02l1.92-2.88v-68.65h-10.7v-11.18l-2.4-3.01h40.52l-2.4,3.01v11.18
			h-11.66V996.27z"/>
		<path class="st3" d="M-349.81,902.02V891.2l-2.28-3.01h18.03l-2.41,3.01v10.82H-349.81z M-349.81,905.02h13.34v93.17l0.84,3.85
			l-15.99-11.78l1.8-2.89V905.02z"/>
		<path class="st3" d="M-296.79,982.45l-16.47,15.27l-19.6-16.59v-69.49l5.05-6.61h25.73l5.29,6.13V982.45z M-311.21,918.01h-8.06
			v54.1l8.06,7.09V918.01z"/>
		<path class="st3" d="M-257.47,908.03v85.36l1.08,4.81l-16.23-12.74l0.72-1.2v-6.13l-8.06-26.21v26.21l-0.36,1.2v0.12l-13.58-10.58
			l0.72-0.6v-60.23l-2.4-3.01h15.63v1.44l8.06,24.65v-26.09h16.83L-257.47,908.03z"/>
	</g>
</g>
<g>
	<g>
		<path class="st3" d="M1.11,17.02l8.17-4.93h29.94l-2.4,3.01v89.09l0.84,3.61l-3.25-2.52l-12.38-9.74l0.72-2.16V59.94h-8.42v29.58
			L0.27,78.46l0.84-0.72V17.02z M14.34,26.28v19.48h8.42V26.28H14.34z"/>
		<path class="st3" d="M56.3,90.48L41.99,80.26l0.84-0.72V15.1l-2.4-3.01h29.94l8.17,4.93v25.37L65.91,49.6l12.62,6.73v47.13
			l1.32,4.81L63.63,96.01l1.8-2.65V61.98l-9.14-4.81V90.48z M56.06,42.15l9.62-5.77v-10.1h-9.62V42.15z"/>
		<path class="st3" d="M107.51,103.34l1.44,6.49L92.24,97.81l1.92-2.88V26.28h-10.7V15.1l-2.4-3.01h40.52l-2.4,3.01v11.18h-11.66
			V103.34z"/>
		<path class="st3" d="M160.08,14.02V3.2l-2.28-3.01h18.03l-2.41,3.01v10.82H160.08z M160.08,17.02h13.34v93.17l0.84,3.85
			l-15.99-11.78l1.8-2.89V17.02z"/>
		<path class="st3" d="M215.14,20.03v85.36l1.08,4.81l-16.23-12.74l0.72-1.2v-6.13l-8.06-26.21v26.21l-0.36,1.2v0.12l-13.58-10.58
			l0.72-0.6V20.03l-2.4-3.01h15.63v1.44l8.06,24.65V17.02h16.83L215.14,20.03z"/>
		<path class="st3" d="M250.85,20.51l-2.28-3.49h15.87l7.45,19l6.97-19h15.39l-0.96,2.89v87.4l1.56,7.21l-7.82-5.77l-8.17-6.13
			l1.92-2.76V67.88l-8.78,23.92l-9.02-32.1v31.02L250,80.98l0.84-0.72V20.51z"/>
		<path class="st3" d="M332.12,94.45l-16.47,15.27l-19.6-16.59V23.63l5.05-6.61h25.73l5.29,6.13V94.45z M317.69,30.01h-8.06v54.1
			l8.06,7.09V30.01z"/>
		<path class="st3" d="M359.77,108.27l1.44,6.49l-16.71-12.02l1.92-2.88V31.21h-10.7V20.03l-2.4-3.01h40.52l-2.4,3.01v11.18h-11.66
			V108.27z"/>
		<path class="st3" d="M377.32,14.02V3.2l-2.28-3.01h18.03l-2.41,3.01v10.82H377.32z M377.32,17.02h13.34v93.17l0.84,3.85
			l-15.99-11.78l1.8-2.89V17.02z"/>
		<path class="st3" d="M430.34,94.45l-16.47,15.27l-19.6-16.59V23.63l5.05-6.61h25.73l5.29,6.13V94.45z M415.91,30.01h-8.06v54.1
			l8.06,7.09V30.01z"/>
		<path class="st3" d="M469.65,20.03v85.36l1.08,4.81L454.5,97.45l0.72-1.2v-6.13l-8.06-26.21v26.21l-0.36,1.2v0.12l-13.58-10.58
			l0.72-0.6V20.03l-2.4-3.01h15.63v1.44l8.06,24.65V17.02h16.83L469.65,20.03z"/>
	</g>
</g>
<g>
	<path d="M-428.61,693.69l6.71-4.04h24.56l-1.97,2.47v73.07l0.69,2.96l-2.66-2.07l-10.16-7.99l0.59-1.77v-27.42h-6.9v24.26
		l-11.54-9.07l0.69-0.59V693.69z M-417.76,701.28v15.98h6.9v-15.98H-417.76z"/>
</g>
<rect x="-400.41" y="0.04" class="st1" width="93.63" height="93.63"/>
<polygon class="st1" points="-417.83,46.86 -353.6,-17.39 -289.36,46.86 -353.6,111.08 "/>
<polygon class="st3" points="-353.6,-8.05 -298.7,46.86 -353.6,101.76 -408.5,46.86 "/>
<g>
	<path d="M-370.61,13.69l6.71-4.04h24.56l-1.97,2.47v73.07l0.69,2.96l-2.66-2.07l-10.16-7.99l0.59-1.77V48.89h-6.9v24.26
		l-11.54-9.07l0.69-0.59V13.69z M-359.76,21.28v15.98h6.9V21.28H-359.76z"/>
</g>
<g>
	<g>
		<path class="st3" d="M-509.43,1029.94c-0.15-2.72-0.32-5.99-0.29-8.42h-0.09c-0.67,2.29-1.48,4.72-2.46,7.41l-3.44,9.46h-1.91
			l-3.16-9.29c-0.93-2.75-1.71-5.27-2.26-7.58h-0.06c-0.06,2.43-0.2,5.7-0.38,8.63l-0.52,8.37h-2.4l1.36-19.51h3.21l3.33,9.44
			c0.81,2.4,1.48,4.54,1.97,6.57h0.09c0.49-1.97,1.19-4.11,2.05-6.57l3.47-9.44h3.21l1.22,19.51h-2.46L-509.43,1029.94z"/>
		<path class="st3" d="M-485.93,1028.55c0,6.71-4.08,10.28-9.06,10.28c-5.15,0-8.77-3.99-8.77-9.9c0-6.19,3.85-10.25,9.06-10.25
			C-489.37,1018.68-485.93,1022.76-485.93,1028.55z M-501.06,1028.87c0,4.17,2.26,7.9,6.22,7.9c4,0,6.25-3.68,6.25-8.11
			c0-3.88-2.03-7.93-6.22-7.93C-498.98,1020.74-501.06,1024.59-501.06,1028.87z"/>
		<path class="st3" d="M-478.37,1038.51l-6.37-19.51h2.72l3.04,9.61c0.84,2.63,1.56,5.01,2.08,7.29h0.06
			c0.55-2.26,1.36-4.72,2.23-7.26l3.3-9.64h2.69l-6.98,19.51H-478.37z"/>
		<path class="st3" d="M-456.4,1029.36h-7.58v7.03h8.45v2.11h-10.97V1019h10.54v2.11h-8.02v6.17h7.58V1029.36z"/>
		<path class="st3" d="M-443.6,1021.14h-5.93V1019h14.44v2.14h-5.96v17.37h-2.55V1021.14z"/>
		<path class="st3" d="M-430.4,1019v8.16h9.44V1019h2.55v19.51h-2.55v-9.15h-9.44v9.15h-2.52V1019H-430.4z"/>
		<path class="st3" d="M-403.94,1029.36h-7.58v7.03h8.45v2.11h-10.97V1019h10.54v2.11h-8.02v6.17h7.58V1029.36z"/>
		<path class="st3" d="M-391.53,1038.51l-4.95-19.51h2.66l2.31,9.87c0.58,2.43,1.1,4.86,1.45,6.74h0.06
			c0.32-1.94,0.93-4.25,1.59-6.77l2.61-9.84h2.63l2.38,9.9c0.55,2.32,1.07,4.63,1.36,6.69h0.06c0.4-2.14,0.96-4.31,1.56-6.74
			l2.58-9.84h2.58l-5.53,19.51h-2.63l-2.46-10.16c-0.61-2.49-1.01-4.4-1.27-6.37h-0.06c-0.35,1.94-0.78,3.85-1.5,6.37l-2.78,10.16
			H-391.53z"/>
		<path class="st3" d="M-353.54,1028.55c0,6.71-4.08,10.28-9.06,10.28c-5.15,0-8.77-3.99-8.77-9.9c0-6.19,3.85-10.25,9.06-10.25
			C-356.99,1018.68-353.54,1022.76-353.54,1028.55z M-368.68,1028.87c0,4.17,2.26,7.9,6.22,7.9c3.99,0,6.25-3.68,6.25-8.11
			c0-3.88-2.03-7.93-6.22-7.93C-366.6,1020.74-368.68,1024.59-368.68,1028.87z"/>
		<path class="st3" d="M-350.27,1019.26c1.27-0.26,3.1-0.41,4.83-0.41c2.69,0,4.43,0.49,5.64,1.59c0.98,0.87,1.54,2.2,1.54,3.71
			c0,2.58-1.62,4.28-3.68,4.98v0.09c1.51,0.52,2.4,1.91,2.87,3.94c0.64,2.72,1.1,4.6,1.5,5.36h-2.61c-0.32-0.55-0.75-2.23-1.3-4.66
			c-0.58-2.69-1.62-3.71-3.91-3.79h-2.38v8.45h-2.52V1019.26z M-347.76,1028.15h2.58c2.69,0,4.4-1.48,4.4-3.71
			c0-2.52-1.82-3.62-4.49-3.65c-1.21,0-2.08,0.12-2.49,0.23V1028.15z"/>
		<path class="st3" d="M-334.7,1019h2.52v17.4h8.34v2.11h-10.86V1019z"/>
		<path class="st3" d="M-321.04,1019.26c1.54-0.23,3.36-0.41,5.36-0.41c3.62,0,6.19,0.84,7.9,2.43c1.74,1.59,2.75,3.85,2.75,7
			c0,3.18-0.98,5.79-2.81,7.58c-1.82,1.82-4.83,2.81-8.62,2.81c-1.79,0-3.3-0.09-4.57-0.23V1019.26z M-318.52,1036.51
			c0.64,0.12,1.56,0.14,2.55,0.14c5.38,0,8.31-3.01,8.31-8.28c0.03-4.6-2.58-7.53-7.9-7.53c-1.3,0-2.29,0.12-2.95,0.26V1036.51z"/>
	</g>
</g>
<g>
	<g>
		<path class="st3" d="M-241.56,437.94c-0.15-2.72-0.32-5.99-0.29-8.42h-0.09c-0.67,2.29-1.48,4.72-2.46,7.41l-3.44,9.46h-1.91
			l-3.16-9.29c-0.93-2.75-1.71-5.27-2.26-7.58h-0.06c-0.06,2.43-0.2,5.7-0.38,8.63l-0.52,8.37h-2.4l1.36-19.51h3.21l3.33,9.44
			c0.81,2.4,1.48,4.54,1.97,6.57h0.09c0.49-1.97,1.19-4.11,2.05-6.57l3.47-9.44h3.21l1.22,19.51h-2.46L-241.56,437.94z"/>
		<path class="st3" d="M-218.05,436.55c0,6.71-4.08,10.28-9.06,10.28c-5.15,0-8.77-3.99-8.77-9.9c0-6.19,3.85-10.25,9.06-10.25
			C-221.5,426.68-218.05,430.76-218.05,436.55z M-233.19,436.87c0,4.17,2.26,7.9,6.22,7.9c4,0,6.25-3.68,6.25-8.11
			c0-3.88-2.03-7.93-6.22-7.93C-231.11,428.74-233.19,432.59-233.19,436.87z"/>
		<path class="st3" d="M-210.5,446.51l-6.37-19.51h2.72l3.04,9.61c0.84,2.63,1.56,5.01,2.08,7.29h0.06
			c0.55-2.26,1.36-4.72,2.23-7.26l3.3-9.64h2.69l-6.98,19.51H-210.5z"/>
		<path class="st3" d="M-188.52,437.36h-7.58v7.03h8.45v2.11h-10.97V427h10.54v2.11h-8.02v6.17h7.58V437.36z"/>
		<path class="st3" d="M-175.73,429.14h-5.93V427h14.44v2.14h-5.96v17.37h-2.55V429.14z"/>
		<path class="st3" d="M-162.53,427v8.16h9.44V427h2.55v19.51h-2.55v-9.15h-9.44v9.15h-2.52V427H-162.53z"/>
		<path class="st3" d="M-136.07,437.36h-7.58v7.03h8.45v2.11h-10.97V427h10.54v2.11h-8.02v6.17h7.58V437.36z"/>
		<path class="st3" d="M-123.65,446.51L-128.6,427h2.66l2.31,9.87c0.58,2.43,1.1,4.86,1.45,6.74h0.06c0.32-1.94,0.93-4.25,1.59-6.77
			l2.61-9.84h2.63l2.38,9.9c0.55,2.32,1.07,4.63,1.36,6.69h0.06c0.4-2.14,0.96-4.31,1.56-6.74l2.58-9.84h2.58l-5.53,19.51h-2.63
			l-2.46-10.16c-0.61-2.49-1.01-4.4-1.27-6.37h-0.06c-0.35,1.94-0.78,3.85-1.5,6.37l-2.78,10.16H-123.65z"/>
		<path class="st3" d="M-85.67,436.55c0,6.71-4.08,10.28-9.06,10.28c-5.15,0-8.77-3.99-8.77-9.9c0-6.19,3.85-10.25,9.06-10.25
			C-89.12,426.68-85.67,430.76-85.67,436.55z M-100.81,436.87c0,4.17,2.26,7.9,6.22,7.9c3.99,0,6.25-3.68,6.25-8.11
			c0-3.88-2.03-7.93-6.22-7.93C-98.72,428.74-100.81,432.59-100.81,436.87z"/>
		<path class="st3" d="M-82.4,427.26c1.27-0.26,3.1-0.41,4.83-0.41c2.69,0,4.43,0.49,5.64,1.59c0.98,0.87,1.54,2.2,1.54,3.71
			c0,2.58-1.62,4.28-3.68,4.98v0.09c1.51,0.52,2.4,1.91,2.87,3.94c0.64,2.72,1.1,4.6,1.5,5.36h-2.61c-0.32-0.55-0.75-2.23-1.3-4.66
			c-0.58-2.69-1.62-3.71-3.91-3.79h-2.38v8.45h-2.52V427.26z M-79.88,436.15h2.58c2.69,0,4.4-1.48,4.4-3.71
			c0-2.52-1.82-3.62-4.49-3.65c-1.21,0-2.08,0.12-2.49,0.23V436.15z"/>
		<path class="st3" d="M-66.82,427h2.52v17.4h8.34v2.11h-10.86V427z"/>
		<path class="st3" d="M-53.16,427.26c1.54-0.23,3.36-0.41,5.36-0.41c3.62,0,6.19,0.84,7.9,2.43c1.74,1.59,2.75,3.85,2.75,7
			c0,3.18-0.98,5.79-2.81,7.58c-1.82,1.82-4.83,2.81-8.62,2.81c-1.79,0-3.3-0.09-4.57-0.23V427.26z M-50.64,444.51
			c0.64,0.12,1.56,0.14,2.55,0.14c5.38,0,8.31-3.01,8.31-8.28c0.03-4.6-2.58-7.53-7.9-7.53c-1.3,0-2.29,0.12-2.95,0.26V444.51z"/>
	</g>
</g>
</svg>
